<svg width="16" height="16" viewBox="0 0 16 16" fill="none" xmlns="http://www.w3.org/2000/svg">
<rect width="16" height="16" rx="4" fill="#F5F1FE"/>
<path d="M8.8091 2.99792L12.522 5.47301C12.6019 5.52628 12.6674 5.59845 12.7127 5.68311C12.758 5.76778 12.7817 5.86232 12.7817 5.95834C12.7817 6.05436 12.758 6.1489 12.7127 6.23357C12.6674 6.31823 12.6019 6.3904 12.522 6.44367L8.8091 8.91934C8.56951 9.07911 8.28798 9.16436 8.00001 9.16436C7.71204 9.16436 7.43052 9.07911 7.19093 8.91934L3.47801 6.44367C3.39812 6.3904 3.33262 6.31823 3.28731 6.23357C3.242 6.1489 3.2183 6.05436 3.2183 5.95834C3.2183 5.86232 3.242 5.76778 3.28731 5.68311C3.33262 5.59845 3.39812 5.52628 3.47801 5.47301L7.19093 2.99792C7.43052 2.83816 7.71204 2.7529 8.00001 2.7529C8.28798 2.7529 8.56951 2.83816 8.8091 2.99792ZM12.6818 8.11201C12.5953 8.25055 12.4806 8.36938 12.3453 8.46084L8.8161 10.8432C8.57506 11.0059 8.29086 11.0929 8.00001 11.0929C7.70917 11.0929 7.42497 11.0059 7.18393 10.8432L3.65476 8.46084C3.44354 8.31835 3.28478 8.11062 3.20272 7.86941C3.12067 7.62819 3.11983 7.36674 3.20035 7.12501L7.19093 9.78501C7.41496 9.9343 7.67595 10.0187 7.94498 10.0288C8.21402 10.0388 8.48059 9.97427 8.71518 9.84217L8.80851 9.78501L12.7991 7.12501C12.8536 7.28798 12.8714 7.461 12.8511 7.63165C12.8308 7.80229 12.773 7.96634 12.6818 8.11201ZM12.6818 10.0078C12.5953 10.1464 12.4806 10.2652 12.3453 10.3567L8.8161 12.739C8.57506 12.9018 8.29086 12.9887 8.00001 12.9887C7.70917 12.9887 7.42497 12.9018 7.18393 12.739L3.65476 10.3567C3.44354 10.2142 3.28478 10.0065 3.20272 9.76524C3.12067 9.52402 3.11983 9.26257 3.20035 9.02084L7.19093 11.6808C7.41496 11.8301 7.67595 11.9145 7.94498 11.9246C8.21402 11.9347 8.48059 11.8701 8.71518 11.738L8.80851 11.6808L12.7991 9.02084C12.8536 9.18381 12.8714 9.35683 12.8511 9.52748C12.8308 9.69813 12.773 9.86217 12.6818 10.0078Z" fill="#8754F6"/>
</svg>
