<svg width="8" height="12" viewBox="0 0 8 12" fill="none" xmlns="http://www.w3.org/2000/svg">
<path d="M5.8869 9.73281L5.73223 10.4043C5.67452 10.6531 5.53891 10.877 5.34515 11.0434C5.15139 11.2098 4.90958 11.3101 4.6549 11.3296L4.56263 11.3333H3.43677C3.18122 11.3333 2.93234 11.2518 2.72638 11.1005C2.52042 10.9492 2.36814 10.7361 2.2917 10.4923L2.26717 10.4032L2.1125 9.73281H5.8869V9.73281ZM3.99997 0.667206C5.02547 0.667206 6.00897 1.07459 6.73411 1.79973C7.45925 2.52487 7.86663 3.50837 7.86663 4.53387C7.86663 5.67307 7.36743 6.71681 6.39197 7.64854C6.37309 7.66658 6.35992 7.68976 6.3541 7.71521L6.0725 8.93281H4.39997V5.33334C4.39997 5.22725 4.35782 5.12551 4.28281 5.0505C4.20779 4.97548 4.10605 4.93334 3.99997 4.93334C3.89388 4.93334 3.79214 4.97548 3.71712 5.0505C3.64211 5.12551 3.59997 5.22725 3.59997 5.33334V8.93334H1.92743L1.6469 7.71574C1.64098 7.69048 1.62782 7.6675 1.60903 7.64961C0.633034 6.71681 0.133301 5.67307 0.133301 4.53334C0.133442 3.50793 0.540884 2.52456 1.26601 1.79954C1.99113 1.07451 2.97456 0.667206 3.99997 0.667206V0.667206ZM3.59997 3.20054V4.00054C3.59997 4.10663 3.64211 4.20837 3.71712 4.28338C3.79214 4.3584 3.89388 4.40054 3.99997 4.40054C4.10605 4.40054 4.20779 4.3584 4.28281 4.28338C4.35782 4.20837 4.39997 4.10663 4.39997 4.00054V3.20054C4.39997 3.09445 4.35782 2.99271 4.28281 2.9177C4.20779 2.84268 4.10605 2.80054 3.99997 2.80054C3.89388 2.80054 3.79214 2.84268 3.71712 2.9177C3.64211 2.99271 3.59997 3.09445 3.59997 3.20054V3.20054ZM6.28263 3.98187C6.20763 3.90697 6.10597 3.86489 5.99997 3.86489C5.89397 3.86489 5.7923 3.90697 5.7173 3.98187L5.15143 4.54721C5.11321 4.58409 5.08272 4.62821 5.06173 4.677C5.04075 4.72579 5.02969 4.77828 5.0292 4.83139C5.02871 4.8845 5.03881 4.93717 5.0589 4.98634C5.07899 5.03551 5.10867 5.08018 5.14621 5.11776C5.18375 5.15533 5.22839 5.18506 5.27754 5.20519C5.32669 5.22533 5.37936 5.23547 5.43247 5.23504C5.48558 5.2346 5.53807 5.22359 5.58689 5.20265C5.6357 5.18171 5.67985 5.15126 5.71677 5.11307L6.28263 4.54774C6.35754 4.47274 6.39961 4.37107 6.39961 4.26507C6.39961 4.15907 6.35754 4.05741 6.28263 3.98241V3.98187ZM2.28263 3.98187C2.20681 3.91122 2.10652 3.87275 2.00289 3.87458C1.89926 3.87641 1.80039 3.91839 1.7271 3.99167C1.65382 4.06496 1.61184 4.16383 1.61001 4.26746C1.60818 4.37109 1.64664 4.47138 1.7173 4.54721L2.28263 5.11307C2.31951 5.15129 2.36364 5.18179 2.41243 5.20277C2.46122 5.22376 2.5137 5.23482 2.56682 5.23531C2.61993 5.23579 2.6726 5.2257 2.72177 5.20561C2.77094 5.18552 2.81561 5.15584 2.85319 5.1183C2.89076 5.08076 2.92048 5.03611 2.94062 4.98696C2.96076 4.93781 2.9709 4.88515 2.97046 4.83204C2.97003 4.77892 2.95902 4.72643 2.93808 4.67762C2.91714 4.62881 2.88669 4.58466 2.8485 4.54774L2.28317 3.98241L2.28263 3.98187Z" fill="#2DB77B"/>
</svg>
