<svg width="14" height="14" viewBox="0 0 14 14" fill="none" xmlns="http://www.w3.org/2000/svg">
<path d="M6.99892 8.06667C7.28182 8.06667 7.55313 7.95429 7.75316 7.75425C7.9532 7.55421 8.06558 7.2829 8.06558 7C8.06558 6.7171 7.9532 6.44579 7.75316 6.24575C7.55313 6.04572 7.28182 5.93333 6.99892 5.93333C6.71602 5.93333 6.44471 6.04572 6.24467 6.24575C6.04463 6.44579 5.93225 6.7171 5.93225 7C5.93225 7.2829 6.04463 7.55421 6.24467 7.75425C6.44471 7.95429 6.71602 8.06667 6.99892 8.06667Z" fill="#BE385E"/>
<path d="M3.79889 7C3.79889 6.1513 4.13603 5.33737 4.73615 4.73725C5.33626 4.13714 6.1502 3.8 6.99889 3.8C7.84758 3.8 8.66151 4.13714 9.26163 4.73725C9.86175 5.33737 10.1989 6.1513 10.1989 7C10.1989 7.84869 9.86175 8.66262 9.26163 9.26274C8.66151 9.86285 7.84758 10.2 6.99889 10.2C6.1502 10.2 5.33626 9.86285 4.73615 9.26274C4.13603 8.66262 3.79889 7.84869 3.79889 7V7ZM6.99889 4.6C6.36237 4.6 5.75192 4.85285 5.30183 5.30294C4.85175 5.75303 4.59889 6.36348 4.59889 7C4.59889 7.63651 4.85175 8.24696 5.30183 8.69705C5.75192 9.14714 6.36237 9.4 6.99889 9.4C7.63541 9.4 8.24586 9.14714 8.69594 8.69705C9.14603 8.24696 9.39889 7.63651 9.39889 7C9.39889 6.36348 9.14603 5.75303 8.69594 5.30294C8.24586 4.85285 7.63541 4.6 6.99889 4.6V4.6Z" fill="#BE385E"/>
<path d="M1.66449 7C1.66449 4.05386 4.05276 1.6656 6.99889 1.6656C9.94502 1.6656 12.3333 4.05386 12.3333 7C12.3333 9.94613 9.94502 12.3344 6.99889 12.3344C4.05276 12.3344 1.66449 9.94613 1.66449 7V7ZM6.99889 2.4656C6.40342 2.4656 5.81379 2.58288 5.26365 2.81076C4.71351 3.03863 4.21364 3.37263 3.79258 3.79369C3.37153 4.21475 3.03753 4.71462 2.80965 5.26476C2.58178 5.81489 2.46449 6.40453 2.46449 7C2.46449 7.59546 2.58178 8.1851 2.80965 8.73524C3.03753 9.28537 3.37153 9.78524 3.79258 10.2063C4.21364 10.6274 4.71351 10.9614 5.26365 11.1892C5.81379 11.4171 6.40342 11.5344 6.99889 11.5344C8.20149 11.5344 9.35483 11.0567 10.2052 10.2063C11.0556 9.35594 11.5333 8.20259 11.5333 7C11.5333 5.7974 11.0556 4.64406 10.2052 3.79369C9.35483 2.94333 8.20149 2.4656 6.99889 2.4656V2.4656Z" fill="#BE385E"/>
</svg>
