<svg width="12" height="7" viewBox="0 0 12 7" fill="none" xmlns="http://www.w3.org/2000/svg">
<path d="M0.862 0.52866C0.987019 0.403679 1.15656 0.333469 1.33333 0.333469C1.51011 0.333469 1.67965 0.403679 1.80467 0.52866L6 4.72399L10.1953 0.52866C10.2568 0.464986 10.3304 0.414198 10.4117 0.379259C10.4931 0.344319 10.5805 0.325929 10.6691 0.325159C10.7576 0.32439 10.8454 0.341258 10.9273 0.374779C11.0092 0.408299 11.0837 0.457801 11.1463 0.520397C11.2089 0.582992 11.2584 0.657426 11.2919 0.739357C11.3254 0.821288 11.3423 0.909074 11.3415 0.997594C11.3407 1.08611 11.3223 1.17359 11.2874 1.25493C11.2525 1.33627 11.2017 1.40983 11.138 1.47133L6.47133 6.13799C6.34631 6.26297 6.17678 6.33318 6 6.33318C5.82322 6.33318 5.65369 6.26297 5.52867 6.13799L0.862 1.47133C0.737019 1.34631 0.666809 1.17677 0.666809 0.999993C0.666809 0.823217 0.737019 0.653678 0.862 0.52866Z" fill="#6D6E85"/>
</svg>
